<svg class="award-logo-svg" fill="#1a1a1a" width="126" height="109" xmlns="http://www.w3.org/2000/svg" viewBox="0 0 126 109" f="none">
<path fill="#1a1a1a" fill-rule="evenodd" clip-rule="evenodd" d="M28.7814 75.9833C27.9123 73.9156 27.2572 71.8478 26.7959 69.8139C26.7491 69.6179 26.6288 69.4287 26.455 69.2936C25.2516 68.3408 24.1218 67.3339 23.0522 66.2798C22.5441 65.773 21.7619 66.0298 21.8154 66.7055C21.9959 68.753 22.3502 70.8545 22.8917 72.9763C21.8355 72.1249 20.826 71.2262 19.87 70.2937C20.2377 70.2937 20.5118 70.0234 20.4516 69.5841C20.1374 67.4286 20.0037 65.3135 20.0372 63.266C20.0372 63.0701 19.9703 62.8606 19.8366 62.6984C18.914 61.5362 18.0517 60.3334 17.2695 59.0968C16.8951 58.5089 16.0862 58.5832 15.9792 59.2522C15.6851 61.2591 15.5447 63.3539 15.5648 65.5027C14.7558 64.4621 13.9937 63.3944 13.2784 62.2997C13.6327 62.3741 13.9603 62.1713 14.0004 61.7389C14.1876 59.5968 14.5419 57.5358 15.0299 55.5694C15.0767 55.3802 15.05 55.164 14.9631 54.9815C14.3213 53.6706 13.7531 52.3259 13.2584 50.9542C13.0244 50.3055 12.2155 50.2041 11.9681 50.8325C11.2461 52.7178 10.6511 54.7045 10.1965 56.7858C9.64167 55.61 9.13359 54.4207 8.679 53.2111C9.00657 53.353 9.37426 53.2314 9.50128 52.8192C10.1497 50.7852 10.9386 48.8662 11.8344 47.0619C11.9213 46.8863 11.9414 46.6768 11.8946 46.4741C11.547 45.0618 11.2795 43.636 11.079 42.1967C10.9854 41.5142 10.2166 41.2439 9.84891 41.798C8.75253 43.4738 7.74975 45.2848 6.86062 47.2039C6.56647 45.947 6.3258 44.6766 6.13193 43.3995C6.4194 43.6089 6.80714 43.5684 7.02106 43.1968C8.08401 41.3588 9.25392 39.6492 10.5107 38.0814C10.6311 37.926 10.6979 37.7301 10.6912 37.5206C10.6511 36.0678 10.6846 34.6082 10.7915 33.1486C10.845 32.4593 10.1497 32.0201 9.67509 32.4864C8.24446 33.8919 6.88736 35.4461 5.61717 37.1354C5.59712 35.8448 5.62386 34.5474 5.71076 33.25C5.95143 33.5202 6.33249 33.5608 6.61995 33.25C8.0439 31.6823 9.54807 30.2565 11.1124 28.9861C11.2662 28.8644 11.3731 28.6752 11.4066 28.4725C11.6807 27.0265 12.0283 25.5939 12.4561 24.1749C12.6634 23.4991 12.0751 22.918 11.5068 23.2761C9.80211 24.3573 8.13081 25.6007 6.52636 26.9859C6.7804 25.702 7.0946 24.4316 7.4556 23.168C7.62942 23.4856 7.9971 23.614 8.34474 23.3572C10.0829 22.1139 11.8678 21.0327 13.6862 20.1069C13.86 20.0191 14.0071 19.8569 14.094 19.661C14.689 18.2825 15.3642 16.931 16.1129 15.6066C16.4739 14.9781 16.0394 14.2686 15.3976 14.5051C13.4656 15.2214 11.5469 16.0931 9.65504 17.127C10.1965 15.9106 10.7982 14.7078 11.4534 13.5253C11.547 13.8834 11.8745 14.0862 12.2823 13.9105C14.2812 13.0455 16.2934 12.3428 18.3124 11.8089C18.5063 11.7549 18.6934 11.6265 18.8205 11.4508C19.7497 10.1939 20.7525 8.97761 21.8422 7.80183C22.3636 7.24097 22.1163 6.43685 21.421 6.53821C19.3218 6.84905 17.196 7.32206 15.0834 7.95049C15.5313 7.36261 15.9926 6.78148 16.4673 6.2071L16.0662 5.86924C15.5848 6.45037 15.1169 7.03825 14.6623 7.6329C14.7224 5.39622 14.9698 3.07846 15.4244 0.706632C15.5848 -0.083976 14.7224 -0.266424 14.0539 0.443096C12.6834 1.92295 11.4132 3.45011 10.25 5.03133C10.0829 5.25432 9.98261 5.51785 9.97593 5.75436C9.86896 8.17349 9.96256 10.5183 10.23 12.7617C10.2834 13.2212 10.6378 13.3834 10.9854 13.2753C10.3236 14.4713 9.7152 15.6876 9.16702 16.9175C8.69237 14.7889 8.36479 12.559 8.21772 10.2345C8.17092 9.46414 7.30184 9.46414 6.84725 10.2683C5.89795 11.9306 5.05561 13.6334 4.30687 15.3633C4.19991 15.6133 4.16648 15.8768 4.21328 16.0998C4.68793 18.4108 5.31634 20.6137 6.09182 22.695C6.25227 23.1207 6.62664 23.2018 6.94084 23.0261C6.57316 24.3032 6.25895 25.5939 5.99823 26.8845C5.05561 24.9519 4.24002 22.891 3.55813 20.7151C3.33752 19.9921 2.49518 20.1745 2.23446 21.0327C1.69964 22.8166 1.25842 24.6208 0.917471 26.4318C0.870675 26.6886 0.897415 26.9521 0.991008 27.1548C1.96036 29.2699 3.06342 31.2498 4.26676 33.0878C4.51411 33.4594 4.90185 33.4594 5.16926 33.2229C5.08236 34.5338 5.05561 35.8448 5.07567 37.1489C3.74531 35.4799 2.50186 33.6757 1.37206 31.7296C0.997693 31.0809 0.222209 31.439 0.148672 32.3174C0.014968 34.1487 -0.0318284 35.9867 0.0216532 37.8112C0.0283384 38.0747 0.108561 38.318 0.24895 38.5004C1.64616 40.3384 3.13696 42.021 4.69461 43.5481C5.00882 43.859 5.38987 43.7711 5.6038 43.4806C5.79767 44.7712 6.03834 46.0551 6.33917 47.3255C4.69461 45.9875 3.09685 44.4942 1.58599 42.8521C1.0846 42.3048 0.396025 42.8183 0.516359 43.69C0.770396 45.501 1.11134 47.2985 1.54588 49.0689C1.60605 49.3189 1.73975 49.5486 1.90688 49.6906C3.65172 51.1772 5.46341 52.5084 7.30853 53.6639C7.6829 53.9004 8.03722 53.7314 8.18429 53.4003C8.64557 54.6234 9.15365 55.833 9.7152 57.0155C7.82329 56.056 5.94475 54.9342 4.11969 53.6503C3.51802 53.2179 2.94977 53.8733 3.25061 54.7045C3.87902 56.4209 4.59433 58.1102 5.39656 59.7657C5.51021 60.0022 5.69071 60.1914 5.88458 60.2996C7.9102 61.3875 9.96924 62.2997 12.035 63.0498C12.4561 63.1985 12.7637 62.962 12.8305 62.6038C13.5525 63.712 14.3213 64.7932 15.1369 65.8406C13.0578 65.3 10.9787 64.5972 8.90629 63.7255C8.2244 63.435 7.80992 64.1985 8.29125 64.9486C9.28066 66.5096 10.357 68.0232 11.5202 69.476C11.6873 69.6855 11.9013 69.8342 12.1219 69.895C14.3614 70.5302 16.601 70.9964 18.8071 71.2937C19.255 71.3546 19.5023 71.0505 19.489 70.6856C20.4583 71.6249 21.4812 72.5303 22.5441 73.3953C20.3514 73.3007 18.1252 73.0507 15.879 72.6317C15.1369 72.4898 14.9096 73.3277 15.5581 73.9697C16.9018 75.3008 18.3324 76.5645 19.8366 77.7605C20.0505 77.9295 20.3046 78.0376 20.5386 78.0511C22.9185 78.2065 25.2717 78.1862 27.5647 78.0105C28.0327 77.9768 28.1998 77.6254 28.0928 77.2605C29.1157 77.8686 30.1653 78.443 31.2483 78.9836C31.2884 78.9059 31.3268 78.8265 31.3653 78.7471C31.4037 78.6677 31.4421 78.5883 31.4822 78.5106C30.4126 77.9767 29.3697 77.4091 28.3602 76.8077C28.7279 76.7266 28.9352 76.4023 28.7614 75.9833H28.7814ZM62.3904 33.9282C63.5948 34.9292 65.1369 35.4297 67.0168 35.4297C69.4013 35.4297 71.2038 34.4857 72.4245 32.5977C73.6452 30.7096 74.2556 27.8979 74.2556 24.1626C74.2556 22.2502 73.9585 20.6104 73.3645 19.2432C72.7785 17.8678 71.9322 16.814 70.8254 16.0815C69.7186 15.3491 68.3881 14.9829 66.8337 14.9829C65.4991 14.9829 64.3109 15.2637 63.2693 15.8252C62.2276 16.3867 61.4097 17.1639 60.8157 18.1567C60.2297 19.1496 59.9367 20.293 59.9367 21.5869C59.9367 22.8239 60.2094 23.9225 60.7546 24.8828C61.308 25.835 62.0648 26.5796 63.0251 27.1167C63.9935 27.6538 65.1003 27.9224 66.3454 27.9224C67.5092 27.9224 68.5427 27.6579 69.446 27.1289C70.3493 26.5999 71.0207 25.8634 71.4602 24.9194C71.4602 30.3556 69.9628 33.0737 66.968 33.0737C65.9263 33.0737 65.0515 32.7889 64.3435 32.2192C63.6355 31.6414 63.1838 30.8317 62.9885 29.79H60.1809C60.4494 31.5479 61.1859 32.9272 62.3904 33.9282ZM69.0554 25.2368C68.4288 25.5949 67.7126 25.7739 66.907 25.7739C66.1094 25.7739 65.3933 25.5949 64.7585 25.2368C64.1319 24.8787 63.6355 24.3823 63.2693 23.7476C62.9112 23.1047 62.7322 22.3682 62.7322 21.5381C62.7322 20.2523 63.1228 19.2269 63.904 18.4619C64.6934 17.6888 65.7025 17.3022 66.9314 17.3022C68.1521 17.3022 69.1449 17.6888 69.9099 18.4619C70.683 19.2269 71.0696 20.2482 71.0696 21.5259C71.0696 22.356 70.8905 23.0924 70.5324 23.7354C70.1744 24.3701 69.682 24.8706 69.0554 25.2368ZM53.7414 20.4028V34.9902H56.5735V15.4956H54.4616C54.1361 16.6349 53.4973 17.6196 52.5451 18.4497C51.593 19.2798 50.4211 19.8617 49.0295 20.1953V22.8809C49.9573 22.6855 50.8484 22.36 51.7029 21.9043C52.5574 21.4486 53.2369 20.9481 53.7414 20.4028ZM47.6957 55.1807C47.1325 55.1807 46.6329 55.0781 46.1967 54.873C45.7637 54.668 45.4154 54.3783 45.1517 54.0039C44.8881 53.6296 44.7286 53.1885 44.6732 52.6807H45.5668C45.6514 53.2406 45.8842 53.6751 46.265 53.9844C46.6459 54.2936 47.1309 54.4482 47.7201 54.4482C48.2279 54.4482 48.6381 54.318 48.9506 54.0576C49.2663 53.7972 49.4242 53.4652 49.4242 53.0615C49.4242 52.7393 49.3591 52.474 49.2289 52.2656C49.1019 52.0573 48.8936 51.8831 48.6039 51.7432C48.3174 51.5999 47.9366 51.4714 47.4613 51.3574C46.6084 51.1523 46.0013 50.8724 45.64 50.5176C45.2819 50.1628 45.1029 49.6875 45.1029 49.0918C45.1029 48.6816 45.2054 48.3203 45.4105 48.0078C45.6189 47.6921 45.9069 47.4463 46.2748 47.2705C46.6459 47.0915 47.0772 47.002 47.5687 47.002C48.3011 47.002 48.8887 47.1956 49.3314 47.583C49.7741 47.9704 50.0362 48.5059 50.1176 49.1895H49.2533C49.1817 48.7272 49.0026 48.3675 48.7162 48.1104C48.433 47.8532 48.0489 47.7246 47.5638 47.7246C47.0918 47.7246 46.7126 47.8434 46.4261 48.0811C46.1429 48.3154 46.0013 48.6361 46.0013 49.043C46.0013 49.4173 46.1153 49.7184 46.3431 49.9463C46.5743 50.1709 46.9958 50.3597 47.6078 50.5127C48.236 50.6657 48.7487 50.8496 49.1459 51.0645C49.5463 51.276 49.8409 51.5381 50.0297 51.8506C50.2217 52.1598 50.3177 52.5423 50.3177 52.998C50.3177 53.4277 50.2071 53.807 49.9857 54.1357C49.7644 54.4645 49.4567 54.7217 49.0629 54.9072C48.669 55.0895 48.2133 55.1807 47.6957 55.1807ZM56.0674 49.5361C55.6312 49.2757 55.1396 49.1455 54.5928 49.1455C54.1305 49.1455 53.7269 49.2285 53.3818 49.3945C53.0368 49.5573 52.7454 49.7868 52.5078 50.083C52.4166 50.1872 52.3467 50.2393 52.2978 50.2393C52.2295 50.2393 52.1839 50.1644 52.1611 50.0146C52.1481 49.9105 52.1367 49.7917 52.1269 49.6582C52.1204 49.5215 52.1155 49.4108 52.1123 49.3262H51.4922V57.4072H52.3174V54.3799C52.3174 54.2757 52.3483 54.2236 52.4101 54.2236C52.4427 54.2236 52.4801 54.2464 52.5224 54.292C52.7438 54.5589 53.027 54.7721 53.372 54.9316C53.7204 55.0911 54.1142 55.1709 54.5537 55.1709C55.1201 55.1709 55.6246 55.0423 56.0674 54.7852C56.5101 54.5247 56.8567 54.1683 57.1074 53.7158C57.3613 53.2601 57.4883 52.7409 57.4883 52.1582C57.4883 51.5723 57.3597 51.0531 57.1025 50.6006C56.8486 50.1481 56.5036 49.7933 56.0674 49.5361ZM53.3281 50.1562C53.6569 49.9609 54.0329 49.8633 54.456 49.8633C54.8792 49.8633 55.2536 49.9609 55.5791 50.1562C55.9079 50.3516 56.165 50.6217 56.3506 50.9668C56.5361 51.3118 56.6289 51.709 56.6289 52.1582C56.6289 52.6042 56.5361 53.0013 56.3506 53.3496C56.165 53.6947 55.9079 53.9648 55.5791 54.1602C55.2536 54.3555 54.8792 54.4531 54.456 54.4531C54.0329 54.4531 53.6569 54.3555 53.3281 54.1602C53.0026 53.9648 52.747 53.6947 52.5615 53.3496C52.376 53.0046 52.2832 52.6074 52.2832 52.1582C52.2832 51.7057 52.376 51.3086 52.5615 50.9668C52.747 50.6217 53.0026 50.3516 53.3281 50.1562ZM61.1578 55.166C60.5719 55.166 60.0575 55.0407 59.6148 54.79C59.1754 54.5394 58.8319 54.1878 58.5845 53.7354C58.3404 53.2796 58.2183 52.749 58.2183 52.1436C58.2183 51.5576 58.3453 51.04 58.5992 50.5908C58.8564 50.1383 59.2047 49.7852 59.6441 49.5312C60.0836 49.2741 60.5767 49.1455 61.1236 49.1455C61.6998 49.1455 62.1978 49.2676 62.6178 49.5117C63.0377 49.7559 63.3616 50.0911 63.5894 50.5176C63.8173 50.944 63.9312 51.4307 63.9312 51.9775C63.9312 52.0426 63.928 52.124 63.9215 52.2217C63.9182 52.3193 63.9133 52.3877 63.9068 52.4268H59.0728C59.1054 53.0387 59.3088 53.5319 59.6832 53.9062C60.0575 54.2806 60.5491 54.4678 61.1578 54.4678C61.6135 54.4678 62.0074 54.3604 62.3394 54.1455C62.6715 53.9274 62.8879 53.6409 62.9888 53.2861H63.8433C63.7554 53.6702 63.5862 54.0039 63.3355 54.2871C63.0881 54.5671 62.7773 54.7835 62.4029 54.9365C62.0318 55.0895 61.6168 55.166 61.1578 55.166ZM61.1383 49.834C60.5686 49.834 60.0966 50.0081 59.7222 50.3564C59.3512 50.7048 59.1363 51.1686 59.0777 51.748H63.1158C63.1093 51.3737 63.0214 51.0433 62.8521 50.7568C62.6829 50.4671 62.4501 50.2409 62.1539 50.0781C61.8609 49.9154 61.5224 49.834 61.1383 49.834ZM66.1115 54.7803C66.564 55.0374 67.0799 55.166 67.6593 55.166C68.1704 55.166 68.6229 55.0732 69.0168 54.8877C69.4107 54.6989 69.7345 54.4352 69.9884 54.0967C70.2424 53.7581 70.4084 53.361 70.4865 52.9053H69.6222C69.5311 53.3773 69.3114 53.7533 68.9631 54.0332C68.618 54.3099 68.1883 54.4482 67.674 54.4482C67.2476 54.4482 66.8716 54.3506 66.5461 54.1553C66.2238 53.96 65.9715 53.6914 65.7892 53.3496C65.6102 53.0046 65.5207 52.6074 65.5207 52.1582C65.5207 51.7057 65.6102 51.3086 65.7892 50.9668C65.9715 50.6217 66.2238 50.3516 66.5461 50.1562C66.8716 49.9609 67.2476 49.8633 67.674 49.8633C68.1883 49.8633 68.618 50.0016 68.9631 50.2783C69.3114 50.555 69.5311 50.931 69.6222 51.4062H70.4865C70.4084 50.9505 70.2424 50.5534 69.9884 50.2148C69.7345 49.8763 69.4107 49.6143 69.0168 49.4287C68.6229 49.2399 68.1704 49.1455 67.6593 49.1455C67.0799 49.1455 66.564 49.2741 66.1115 49.5312C65.6623 49.7884 65.3091 50.1432 65.0519 50.5957C64.7948 51.0482 64.6662 51.569 64.6662 52.1582C64.6662 52.7441 64.7948 53.2633 65.0519 53.7158C65.3091 54.1683 65.6623 54.5231 66.1115 54.7803ZM71.9832 48.2373C71.8074 48.2373 71.6609 48.1836 71.5437 48.0762C71.4298 47.9655 71.3728 47.8271 71.3728 47.6611C71.3728 47.4951 71.4298 47.3584 71.5437 47.251C71.6609 47.1403 71.8074 47.085 71.9832 47.085C72.159 47.085 72.3038 47.1403 72.4177 47.251C72.5349 47.3584 72.5935 47.4951 72.5935 47.6611C72.5935 47.8271 72.5349 47.9655 72.4177 48.0762C72.3038 48.1836 72.159 48.2373 71.9832 48.2373ZM71.573 49.3262H72.3982V54.9902H71.573V49.3262ZM74.1683 54.6875C74.5622 55.0098 75.083 55.1709 75.7308 55.1709C76.1605 55.1709 76.5316 55.0928 76.8441 54.9365C77.1566 54.777 77.4073 54.554 77.5961 54.2676C77.6384 54.2025 77.6693 54.1602 77.6888 54.1406C77.7084 54.1211 77.7328 54.1113 77.7621 54.1113C77.8207 54.1113 77.8597 54.165 77.8793 54.2725C77.8955 54.3506 77.9086 54.458 77.9183 54.5947C77.9281 54.7282 77.9346 54.86 77.9379 54.9902H78.558V51.4453C78.558 50.7161 78.3545 50.1514 77.9476 49.751C77.544 49.3473 76.9662 49.1455 76.2142 49.1455C75.7911 49.1455 75.4069 49.2204 75.0619 49.3701C74.7201 49.5199 74.4336 49.7298 74.2025 50C73.9746 50.2702 73.8217 50.5892 73.7435 50.957H74.6078C74.6957 50.6185 74.8796 50.3483 75.1595 50.1465C75.4427 49.9414 75.8008 49.8389 76.2338 49.8389C76.7188 49.8389 77.0915 49.9756 77.3519 50.249C77.6123 50.5225 77.7426 50.9147 77.7426 51.4258V51.4453C77.5863 51.4909 77.3405 51.5332 77.0052 51.5723C76.67 51.6081 76.2777 51.6406 75.8285 51.6699C75.0635 51.722 74.4971 51.8913 74.1293 52.1777C73.7647 52.4609 73.5824 52.8695 73.5824 53.4033C73.5824 53.9339 73.7777 54.362 74.1683 54.6875ZM74.808 54.1992C74.5541 54.0039 74.4271 53.7354 74.4271 53.3936C74.4271 53.0648 74.5394 52.8174 74.764 52.6514C74.9919 52.4854 75.3646 52.3812 75.8822 52.3389C76.3379 52.3031 76.7237 52.2656 77.0394 52.2266C77.3552 52.1875 77.5896 52.1436 77.7426 52.0947V52.1094C77.7426 52.4154 77.7149 52.6855 77.6595 52.9199C77.6042 53.151 77.5342 53.3561 77.4496 53.5352C77.2738 53.9095 77.0411 54.1634 76.7513 54.2969C76.4616 54.4271 76.1524 54.4922 75.8236 54.4922C75.4037 54.4922 75.0651 54.3945 74.808 54.1992ZM80.0742 54.9902V46.8896H80.8994V54.9902H80.0742ZM47.7508 62.1924V69.9902H48.6492V66.123L52.492 69.9902H53.7029L49.7234 65.9912L53.5564 62.1924H52.4529L48.6492 65.9863V62.1924H47.7508ZM56.2103 70.1709C55.5007 70.1709 54.9538 69.9626 54.5697 69.5459C54.1856 69.126 53.9935 68.5286 53.9935 67.7539V64.3262H54.8187V67.6953C54.8187 68.2552 54.9457 68.6865 55.1996 68.9893C55.4535 69.292 55.8164 69.4434 56.2885 69.4434C56.946 69.4434 57.4375 69.2074 57.7631 68.7354C58.0951 68.2536 58.2611 67.5765 58.2611 66.7041V64.3262H59.0863V69.9902H58.4662C58.4629 69.8958 58.4564 69.7852 58.4467 69.6582C58.4401 69.5312 58.432 69.4271 58.4222 69.3457C58.4092 69.2415 58.3913 69.1715 58.3685 69.1357C58.3457 69.0967 58.3116 69.0771 58.266 69.0771C58.2399 69.0771 58.2139 69.0853 58.1879 69.1016C58.1651 69.1178 58.1325 69.1569 58.0902 69.2188C57.8786 69.5215 57.6198 69.7559 57.3138 69.9219C57.0111 70.0879 56.6433 70.1709 56.2103 70.1709ZM61.6523 69.7852C62.0885 70.0423 62.5801 70.1709 63.1269 70.1709C63.5892 70.1709 63.9928 70.0895 64.3379 69.9268C64.6829 69.7607 64.9743 69.5296 65.2119 69.2334C65.2998 69.1292 65.3698 69.0771 65.4219 69.0771C65.4902 69.0771 65.5358 69.152 65.5586 69.3018C65.5716 69.4059 65.5814 69.5264 65.5879 69.6631C65.5976 69.7965 65.6041 69.9056 65.6074 69.9902H66.2226V61.8896H65.4023V64.9365C65.4023 65.0407 65.3714 65.0928 65.3095 65.0928C65.277 65.0928 65.2396 65.07 65.1972 65.0244C64.9726 64.7542 64.6878 64.541 64.3428 64.3848C63.9977 64.2253 63.6054 64.1455 63.166 64.1455C62.5996 64.1455 62.095 64.2757 61.6523 64.5361C61.2096 64.7933 60.8613 65.1497 60.6074 65.6055C60.3567 66.0579 60.2314 66.5755 60.2314 67.1582C60.2314 67.7409 60.3584 68.2601 60.6123 68.7158C60.8694 69.1683 61.2161 69.5247 61.6523 69.7852ZM64.3916 69.1602C64.0661 69.3555 63.6901 69.4531 63.2636 69.4531C62.8405 69.4531 62.4645 69.3555 62.1357 69.1602C61.8069 68.9648 61.5498 68.6947 61.3642 68.3496C61.1787 68.0046 61.0859 67.6074 61.0859 67.1582C61.0859 66.709 61.1787 66.3119 61.3642 65.9668C61.5498 65.6217 61.8069 65.3516 62.1357 65.1562C62.4645 64.9609 62.8405 64.8633 63.2636 64.8633C63.6901 64.8633 64.0661 64.9609 64.3916 65.1562C64.7171 65.3516 64.9726 65.6217 65.1582 65.9668C65.3437 66.3086 65.4365 66.7057 65.4365 67.1582C65.4365 67.6074 65.3437 68.0046 65.1582 68.3496C64.9726 68.6947 64.7171 68.9648 64.3916 69.1602ZM70.4293 70.1709C69.8401 70.1709 69.3144 70.0407 68.8521 69.7803C68.3931 69.5199 68.0318 69.1634 67.7681 68.7109C67.5045 68.2552 67.3726 67.7376 67.3726 67.1582C67.3726 66.5755 67.5045 66.0579 67.7681 65.6055C68.0318 65.153 68.3931 64.7965 68.8521 64.5361C69.3144 64.2757 69.8401 64.1455 70.4293 64.1455C71.0185 64.1455 71.5426 64.2757 72.0015 64.5361C72.4638 64.7965 72.8267 65.153 73.0904 65.6055C73.3541 66.0579 73.4859 66.5755 73.4859 67.1582C73.4859 67.7376 73.3541 68.2552 73.0904 68.7109C72.8267 69.1634 72.4638 69.5199 72.0015 69.7803C71.5426 70.0407 71.0185 70.1709 70.4293 70.1709ZM70.4293 69.4531C70.8622 69.4531 71.2431 69.3555 71.5719 69.1602C71.9039 68.9648 72.1627 68.6947 72.3482 68.3496C72.537 68.0046 72.6314 67.6074 72.6314 67.1582C72.6314 66.709 72.537 66.3119 72.3482 65.9668C72.1627 65.6217 71.9039 65.3516 71.5719 65.1562C71.2431 64.9609 70.8622 64.8633 70.4293 64.8633C69.9996 64.8633 69.6187 64.9609 69.2867 65.1562C68.9547 65.3516 68.6942 65.6217 68.5054 65.9668C68.3199 66.3119 68.2271 66.709 68.2271 67.1582C68.2271 67.6074 68.3199 68.0046 68.5054 68.3496C68.6942 68.6947 68.9547 68.9648 69.2867 69.1602C69.6187 69.3555 69.9996 69.4531 70.4293 69.4531ZM74.8996 69.6875C75.3325 70.013 75.9038 70.1758 76.6135 70.1758C77.0399 70.1758 77.4175 70.1042 77.7463 69.9609C78.0783 69.8145 78.3387 69.6143 78.5275 69.3604C78.7163 69.1064 78.8107 68.82 78.8107 68.501C78.8107 68.1462 78.7407 67.8564 78.6008 67.6318C78.464 67.404 78.2329 67.2184 77.9074 67.0752C77.5819 66.9287 77.1343 66.805 76.5646 66.7041C76.0861 66.6195 75.7443 66.5039 75.5392 66.3574C75.3374 66.2077 75.2365 65.9945 75.2365 65.7178C75.2365 65.4411 75.3488 65.223 75.5734 65.0635C75.798 64.904 76.1024 64.8242 76.4865 64.8242C76.8934 64.8242 77.2043 64.9121 77.4191 65.0879C77.6372 65.2604 77.7804 65.5241 77.8488 65.8789H78.6838C78.6122 65.3255 78.3859 64.8991 78.0051 64.5996C77.6275 64.2969 77.1164 64.1455 76.4719 64.1455C76.0649 64.1455 75.7069 64.2139 75.3976 64.3506C75.0916 64.4873 74.8524 64.6777 74.6799 64.9219C74.5073 65.1628 74.4211 65.4443 74.4211 65.7666C74.4211 66.2419 74.5757 66.6113 74.8849 66.875C75.1942 67.1354 75.7134 67.3324 76.4426 67.4658C76.8462 67.5374 77.1587 67.6172 77.3801 67.7051C77.6047 67.793 77.7625 67.9036 77.8537 68.0371C77.9448 68.1673 77.9904 68.3366 77.9904 68.5449C77.9904 68.8281 77.8651 69.0576 77.6144 69.2334C77.367 69.4059 77.0383 69.4922 76.6281 69.4922C76.1398 69.4922 75.7573 69.3896 75.4806 69.1846C75.2072 68.9762 75.0379 68.6995 74.9728 68.3545H74.1135C74.2079 68.9176 74.4699 69.362 74.8996 69.6875ZM6.09581 96.0281L12.1916 102.056L9.14372 105.036L6.09581 102.056L3.04791 99.076L0 96.0281L6.09581 90H12.1916L6.09581 96.0281ZM13.4786 96.028L16.5265 99.0759L19.5744 102.056L16.5265 105.104L13.4786 108.084H7.38281L13.4786 102.056L7.45054 96.028L10.4307 93.0479L13.4786 96.028ZM27.1602 96.0285C26.2797 96.0285 25.5346 96.2994 24.9928 96.909C24.4509 97.5185 24.18 98.3313 24.18 99.415C24.18 100.499 24.4509 101.311 24.9251 101.921C25.4669 102.531 26.1442 102.802 27.0925 102.802C27.702 102.802 28.3116 102.666 29.0567 102.463V103.343C28.4471 103.547 27.7698 103.682 26.957 103.682C25.7378 103.682 24.7896 103.343 24.1123 102.598C23.435 101.853 23.0963 100.77 23.0963 99.415C23.0963 98.5345 23.2318 97.7895 23.5704 97.1799C23.9091 96.5703 24.3832 96.0285 24.9251 95.6898C25.4669 95.3511 26.212 95.1479 27.0925 95.1479C27.973 95.1479 28.718 95.2834 29.3953 95.6221L28.9889 96.4348C28.4471 96.2317 27.8375 96.0285 27.1602 96.0285ZM34.8138 103.072C35.3556 102.666 35.6265 102.124 35.6265 101.379C35.6265 100.837 35.4911 100.363 35.0847 99.9567C34.746 99.6181 34.1365 99.2794 33.256 98.9408C32.8388 98.7843 32.5421 98.6279 32.304 98.5024C32.2328 98.4649 32.1669 98.4301 32.1045 98.3989C31.8336 98.2635 31.6981 98.128 31.5627 97.9248C31.4949 97.7893 31.4272 97.5184 31.4272 97.2475C31.4272 96.8411 31.5627 96.5024 31.8336 96.2992C32.1722 96.096 32.5109 95.9606 33.0528 95.9606C33.7301 95.9606 34.4074 96.096 35.0847 96.367L35.3556 95.5542C34.6106 95.2155 33.8655 95.0801 33.0528 95.0801C32.3077 95.0801 31.6304 95.2155 31.1563 95.6219C30.6822 96.0283 30.4112 96.5702 30.4112 97.1797C30.4112 97.7893 30.5467 98.2635 30.8854 98.6698C31.1563 99.0762 31.7659 99.4149 32.5109 99.6858C33.0528 99.889 33.4591 100.092 33.7301 100.228C33.7651 100.254 33.7989 100.279 33.8316 100.303L33.8317 100.303L33.8318 100.303L33.8319 100.303C34.0525 100.467 34.2217 100.593 34.3396 100.77C34.4751 100.905 34.5428 101.176 34.5428 101.447C34.5428 101.853 34.4074 102.192 34.0687 102.463C33.7978 102.666 33.3237 102.801 32.6464 102.801C32.24 102.801 31.7659 102.734 31.4272 102.666C31.0886 102.598 30.6822 102.463 30.3435 102.327V103.276C30.8854 103.546 31.6304 103.682 32.6464 103.682C33.5946 103.682 34.2719 103.479 34.8138 103.072ZM42.0611 101.379C42.0611 102.124 41.7902 102.666 41.2483 103.072C40.7065 103.479 40.0292 103.682 39.0809 103.682C38.065 103.682 37.3199 103.546 36.7781 103.276V102.327C37.1167 102.463 37.5231 102.598 37.8618 102.666C38.2004 102.734 38.6746 102.801 39.0809 102.801C39.7583 102.801 40.2324 102.666 40.5033 102.463C40.842 102.192 40.9774 101.853 40.9774 101.447C40.9774 101.176 40.9097 100.905 40.7742 100.77C40.6563 100.593 40.487 100.467 40.2663 100.303L40.2662 100.303C40.2335 100.279 40.1996 100.254 40.1646 100.228C39.8937 100.092 39.4873 99.889 38.9455 99.6858C38.2004 99.4149 37.5909 99.0762 37.3199 98.6698C36.9813 98.2635 36.8458 97.7893 36.8458 97.1797C36.8458 96.5702 37.1167 96.0283 37.5909 95.6219C38.065 95.2155 38.7423 95.0801 39.4873 95.0801C40.3001 95.0801 41.0451 95.2155 41.7902 95.5542L41.5193 96.367C40.842 96.096 40.1646 95.9606 39.4873 95.9606C38.9455 95.9606 38.6068 96.096 38.2682 96.2992C37.9972 96.5024 37.8618 96.8411 37.8618 97.2475C37.8618 97.5184 37.9295 97.7893 37.9972 97.9248C38.1327 98.128 38.2682 98.2635 38.5391 98.3989C38.6014 98.4301 38.6674 98.4649 38.7386 98.5024C38.9767 98.6279 39.2734 98.7843 39.6905 98.9408C40.571 99.2794 41.1806 99.6181 41.5193 99.9567C41.8579 100.363 42.0611 100.837 42.0611 101.379ZM49.3761 102.463C50.1212 101.718 50.5276 100.634 50.5276 99.2794C50.5276 97.9925 50.1212 96.9765 49.3761 96.2992C48.6311 95.6219 47.6151 95.2832 46.2605 95.2832H43.4158V103.614H46.125C47.5474 103.614 48.6311 103.208 49.3761 102.463ZM47.7506 97.6538C48.0892 97.9925 48.2247 98.602 48.2247 99.3471C48.2247 100.16 48.0892 100.769 47.6828 101.176C47.3442 101.582 46.8701 101.785 46.1928 101.785H45.7186V97.1119H46.3959C47.0055 97.1119 47.4796 97.3151 47.7506 97.6538ZM54.9978 103.75C53.9141 103.75 53.1013 103.479 52.4917 102.869C51.8821 102.327 51.6112 101.515 51.6112 100.431C51.6112 99.3473 51.8821 98.5345 52.424 97.9249C52.9658 97.3154 53.7786 97.0444 54.7946 97.0444C55.7428 97.0444 56.4879 97.3154 57.0297 97.7895C57.5716 98.2636 57.8425 99.0086 57.8425 99.9569V100.973H53.8463C53.8463 101.312 53.9818 101.582 54.2527 101.853C54.5237 102.057 54.8623 102.192 55.2687 102.192C55.6751 102.192 56.0137 102.124 56.3524 102.057C56.6911 101.989 57.0297 101.853 57.4361 101.65V103.276C57.0974 103.479 56.7588 103.547 56.3524 103.614C55.946 103.682 55.5396 103.75 54.9978 103.75ZM54.8623 98.6022C54.5914 98.6022 54.3882 98.67 54.185 98.8732C53.9818 99.0086 53.9141 99.2796 53.8463 99.6182H55.7428C55.7428 99.2796 55.6751 99.0764 55.4719 98.8732C55.4042 98.67 55.201 98.6022 54.8623 98.6022ZM63.3964 103.208C63.8706 102.869 64.0738 102.327 64.0738 101.65C64.0738 101.443 64.0483 101.235 64.0287 101.074C64.0162 100.973 64.006 100.89 64.006 100.837C63.9383 100.634 63.7351 100.431 63.5319 100.228C63.3436 100.039 63.0388 99.9091 62.6177 99.7293L62.6176 99.7292L62.5159 99.6857C62.2112 99.5503 61.9742 99.4487 61.7964 99.3725L61.7963 99.3725C61.6185 99.2963 61.5 99.2455 61.4322 99.2116C61.2968 99.1439 61.229 99.0762 61.229 98.9407C61.229 98.7375 61.4322 98.6698 61.7709 98.6698C61.9317 98.6698 62.1348 98.7122 62.3804 98.7634C62.4452 98.777 62.513 98.7911 62.5837 98.8052C62.9223 98.873 63.261 99.0084 63.5319 99.1439L64.1415 97.7215C63.7351 97.5183 63.3965 97.3829 62.9901 97.3151L62.9899 97.3151C62.5836 97.2474 62.1772 97.1797 61.7709 97.1797C60.8904 97.1797 60.2808 97.3151 59.8067 97.6538C59.3326 97.9925 59.1294 98.4666 59.1294 99.0762C59.1294 99.5503 59.2648 99.8889 59.468 100.228C59.6712 100.499 60.0776 100.769 60.6872 101.04C61.2968 101.311 61.7032 101.514 61.8386 101.582C61.9741 101.65 62.0418 101.718 62.0418 101.853C62.0418 102.056 61.7709 102.192 61.2968 102.192C61.0076 102.192 60.7183 102.142 60.3869 102.086L60.3185 102.074L60.2131 102.056L60.2127 102.056C59.8064 101.921 59.4002 101.785 59.0616 101.65V103.411C59.3529 103.527 59.6942 103.594 59.9994 103.653C60.0491 103.663 60.0979 103.672 60.1453 103.682C60.484 103.75 60.8904 103.75 61.3645 103.75C62.245 103.75 62.9223 103.546 63.3964 103.208ZM65.293 95.5541C65.293 95.2154 65.3607 94.9445 65.5639 94.809C65.7671 94.6735 66.038 94.5381 66.4444 94.5381C66.8508 94.5381 67.1894 94.6058 67.3249 94.809C67.5281 94.9445 67.5958 95.2154 67.5958 95.5541C67.5958 96.2314 67.1894 96.5023 66.3767 96.5023C65.6316 96.57 65.293 96.2314 65.293 95.5541ZM67.5281 103.614H65.293V97.1796H67.5281V103.614ZM75.1817 98.2636V97.1799H72.8788C72.8227 97.1799 72.755 97.1683 72.6757 97.1547C72.5634 97.1354 72.428 97.1122 72.2693 97.1122C71.9983 97.0444 71.7952 97.0444 71.6597 97.0444C70.7792 97.0444 70.1019 97.2476 69.6277 97.654C69.1536 98.0604 68.8827 98.6022 68.8827 99.2796C68.8827 99.7537 68.9504 100.092 69.1536 100.431C69.3568 100.702 69.6278 100.973 69.9664 101.108C69.6278 101.312 69.4246 101.515 69.2891 101.65C69.2214 101.786 69.1536 101.989 69.1536 102.192C69.1536 102.395 69.2214 102.531 69.3568 102.734C69.56 102.937 69.6955 103.073 69.8987 103.14C68.9504 103.343 68.4763 103.885 68.4763 104.63C68.4763 105.172 68.7472 105.646 69.2214 105.917C69.6955 106.256 70.4405 106.391 71.321 106.391C72.5402 106.391 73.4884 106.12 74.1657 105.714C74.8431 105.308 75.1817 104.698 75.1817 103.885C75.1817 102.666 74.4367 102.057 73.0143 102.057H71.9306C71.6597 102.057 71.4565 102.057 71.2533 101.989C71.0501 101.921 70.9824 101.853 70.9824 101.718C70.9824 101.65 70.9824 101.515 71.0501 101.447C71.1856 101.515 71.321 101.515 71.592 101.515C72.5402 101.515 73.2852 101.379 73.7594 100.973C74.2335 100.566 74.5044 100.025 74.5044 99.3473C74.5044 99.0764 74.4367 98.8055 74.3012 98.6022L75.1817 98.2636ZM70.576 104.901C70.3728 104.766 70.3051 104.63 70.3051 104.427C70.3051 104.224 70.3728 104.088 70.5083 103.953C70.5431 103.941 70.576 103.93 70.6079 103.919C70.7619 103.864 70.8934 103.818 71.1178 103.818H71.9983C72.4047 103.818 72.6757 103.885 72.8788 103.953C73.082 104.021 73.1498 104.088 73.1498 104.292C73.1498 104.495 73.0143 104.698 72.6757 104.834C72.337 104.969 71.9306 105.037 71.3888 105.037C71.0501 105.037 70.7792 105.037 70.576 104.901ZM71.6597 100.296C71.1856 100.296 70.9824 99.9569 70.9824 99.2796C70.9824 98.6022 71.2533 98.2636 71.6597 98.2636C72.1338 98.2636 72.337 98.6022 72.337 99.2796C72.337 99.6182 72.2693 99.8891 72.1338 100.025C72.0661 100.228 71.8629 100.296 71.6597 100.296ZM80.1937 100.092C80.1937 99.6857 80.126 99.3471 79.9905 99.1439C79.8551 98.9407 79.6519 98.8052 79.381 98.8052C78.9746 98.8052 78.7037 98.9407 78.5682 99.2794C78.4327 99.5503 78.2973 100.092 78.2973 100.837V103.682H76.0621V97.2474H77.7554L78.0263 98.0602H78.1618C78.365 97.7893 78.6359 97.5183 78.9746 97.3829C79.3132 97.2474 79.7196 97.1797 80.126 97.1797C80.8711 97.1797 81.4129 97.3829 81.8193 97.7893C82.2257 98.1957 82.4289 98.8052 82.4289 99.5503V103.75H80.1937V103.614V100.092ZM88.5247 100.973L89.5407 103.614H90.6244L87.3733 95.2832H86.5605L83.2417 103.614H84.1899L85.2059 100.973H88.5247ZM87.2378 97.5183L88.1861 100.092H85.5446L86.4928 97.5183C86.5332 97.3768 86.5737 97.2414 86.6123 97.112C86.7031 96.8077 86.7839 96.5368 86.8315 96.2992C86.9669 96.7733 87.1024 97.1797 87.2378 97.5183ZM96.6525 103.614L95.5011 99.9567C95.4592 99.8312 95.3915 99.5765 95.298 99.2245L95.2978 99.2239C95.24 99.0061 95.1723 98.7512 95.0947 98.4667H95.0269C94.8915 99.144 94.756 99.6181 94.6206 100.024L93.4691 103.682H92.3854L90.6921 97.4507H91.7081C91.8435 97.9698 91.9639 98.4513 92.0743 98.8927L92.0744 98.8932L92.0744 98.8933L92.0745 98.8935C92.2952 99.7764 92.4758 100.499 92.6563 101.04L92.6564 101.041L92.6565 101.041C92.8596 101.853 92.995 102.395 92.995 102.666H93.0627C93.1305 102.463 93.1982 102.192 93.2659 101.853C93.3131 101.617 93.3933 101.414 93.4604 101.244C93.4896 101.17 93.5163 101.102 93.5368 101.04L94.6883 97.4507H95.7043L96.7879 101.04C96.9911 101.718 97.1266 102.26 97.1943 102.666H97.2621C97.2621 102.567 97.2984 102.431 97.3444 102.26C97.3612 102.197 97.3794 102.129 97.3975 102.056C97.4098 102.007 97.4331 101.916 97.467 101.784C97.621 101.183 97.9941 99.7258 98.549 97.4507H99.4972L97.8039 103.682H96.6525V103.614ZM104.238 102.734L104.442 103.614V103.547H105.119V99.2795C105.119 98.6022 104.916 98.0603 104.577 97.7217C104.238 97.383 103.697 97.2476 102.952 97.2476C102.613 97.2476 102.206 97.3153 101.868 97.383C101.597 97.4733 101.386 97.5636 101.175 97.6539C101.07 97.6991 100.965 97.7442 100.852 97.7894L101.123 98.5345C101.8 98.1958 102.342 98.0603 102.884 98.0603C103.358 98.0603 103.697 98.1958 103.9 98.399C104.103 98.6022 104.238 99.0086 104.238 99.4827V99.8891L103.155 99.9568C101.123 100.025 100.107 100.634 100.107 101.921C100.107 102.531 100.31 102.937 100.649 103.276C100.987 103.614 101.461 103.75 102.071 103.75C102.545 103.75 102.884 103.682 103.222 103.547C103.561 103.411 103.832 103.14 104.171 102.734H104.238ZM103.629 102.463C103.29 102.802 102.884 102.937 102.274 102.937C101.936 102.937 101.665 102.869 101.394 102.666C101.191 102.531 101.055 102.26 101.055 101.921C101.055 101.515 101.191 101.176 101.529 100.973C101.868 100.77 102.41 100.634 103.155 100.634L104.103 100.566V101.108C104.103 101.718 103.967 102.124 103.629 102.463ZM109.928 97.2476C110.199 97.2476 110.47 97.2476 110.673 97.3153L110.537 98.1958C110.266 98.1281 110.063 98.1281 109.86 98.1281C109.386 98.1281 108.912 98.3313 108.573 98.7376C108.234 99.144 108.031 99.6859 108.031 100.295V103.614H107.083V97.383H107.828L107.964 98.5345H108.031C108.234 98.1281 108.573 97.7894 108.844 97.5862C109.183 97.383 109.521 97.2476 109.928 97.2476ZM114.059 103.75C114.94 103.75 115.617 103.411 116.091 102.802L116.227 103.614H116.972V94.7417H116.024V97.3832V97.7896L116.091 98.2637H116.024C115.549 97.6541 114.872 97.3155 114.059 97.3155C113.247 97.3155 112.637 97.6541 112.163 98.196C111.689 98.7378 111.486 99.5506 111.486 100.567C111.486 101.583 111.689 102.395 112.163 102.937C112.637 103.479 113.247 103.75 114.059 103.75ZM115.617 102.395C115.279 102.734 114.872 102.937 114.195 102.937C113.585 102.937 113.179 102.734 112.772 102.395C112.502 101.989 112.366 101.379 112.366 100.567C112.366 99.7538 112.569 99.1442 112.84 98.7378C113.179 98.2637 113.585 98.0605 114.127 98.0605C114.804 98.0605 115.279 98.196 115.549 98.6024C115.888 99.0088 116.024 99.6183 116.024 100.499V100.702C116.024 101.447 115.888 102.057 115.617 102.395ZM123 101.921C123 102.531 122.797 102.937 122.323 103.276C121.916 103.614 121.307 103.75 120.494 103.75C119.681 103.75 119.004 103.614 118.53 103.343V102.463C118.801 102.598 119.139 102.734 119.478 102.802C119.817 102.869 120.155 102.937 120.494 102.937C120.968 102.937 121.374 102.869 121.645 102.734C121.916 102.598 122.052 102.327 122.052 101.989C122.052 101.718 121.916 101.515 121.713 101.379C121.51 101.176 121.103 100.973 120.494 100.77C119.884 100.566 119.478 100.363 119.275 100.228C119.004 100.092 118.868 99.8891 118.733 99.6859C118.597 99.4827 118.53 99.2118 118.53 98.9408C118.53 98.4667 118.733 98.0603 119.139 97.7217C119.546 97.383 120.087 97.2476 120.833 97.2476C121.51 97.2476 122.187 97.383 122.797 97.6539L122.458 98.399C121.849 98.1281 121.239 97.9926 120.765 97.9926C120.291 97.9926 119.952 98.0603 119.749 98.1958C119.546 98.3313 119.41 98.5345 119.41 98.8054C119.41 98.9408 119.478 99.144 119.546 99.2118C119.601 99.3232 119.703 99.3888 119.85 99.4841L119.852 99.4848C119.883 99.5051 119.916 99.5267 119.952 99.5504C120.155 99.6859 120.494 99.8214 121.036 100.025C121.781 100.295 122.255 100.566 122.526 100.837C122.864 101.176 123 101.515 123 101.921ZM98.2274 69.8139C97.7661 71.8478 97.1109 73.9156 96.2418 75.9833H96.2619C96.0881 76.4023 96.2953 76.7266 96.663 76.8077C95.6535 77.4091 94.6106 77.9767 93.541 78.5106C93.5811 78.5883 93.6196 78.6677 93.658 78.7471C93.6964 78.8265 93.7349 78.9059 93.775 78.9836C94.858 78.443 95.9076 77.8686 96.9304 77.2605C96.8235 77.6254 96.9906 77.9768 97.4585 78.0105C99.7516 78.1862 102.105 78.2065 104.485 78.0511C104.719 78.0376 104.973 77.9295 105.187 77.7605C106.691 76.5645 108.121 75.3008 109.465 73.9697C110.114 73.3277 109.886 72.4898 109.144 72.6317C106.898 73.0507 104.672 73.3007 102.479 73.3953C103.542 72.5303 104.565 71.6249 105.534 70.6856C105.521 71.0505 105.768 71.3546 106.216 71.2937C108.422 70.9964 110.662 70.5302 112.901 69.895C113.122 69.8342 113.336 69.6855 113.503 69.476C114.666 68.0232 115.743 66.5096 116.732 64.9486C117.213 64.1985 116.799 63.435 116.117 63.7255C114.045 64.5972 111.965 65.3 109.886 65.8406C110.702 64.7932 111.471 63.712 112.193 62.6038C112.26 62.962 112.567 63.1985 112.988 63.0498C115.054 62.2997 117.113 61.3875 119.139 60.2996C119.333 60.1914 119.513 60.0022 119.627 59.7657C120.429 58.1102 121.144 56.4209 121.773 54.7045C122.073 53.8733 121.505 53.2179 120.904 53.6503C119.079 54.9342 117.2 56.056 115.308 57.0155C115.87 55.833 116.378 54.6234 116.839 53.4003C116.986 53.7314 117.34 53.9004 117.715 53.6639C119.56 52.5084 121.372 51.1772 123.116 49.6906C123.284 49.5486 123.417 49.3189 123.477 49.0689C123.912 47.2985 124.253 45.501 124.507 43.69C124.627 42.8183 123.939 42.3048 123.437 42.8521C121.926 44.4942 120.329 45.9875 118.684 47.3255C118.985 46.0551 119.226 44.7712 119.419 43.4806C119.633 43.7711 120.014 43.859 120.329 43.5481C121.886 42.021 123.377 40.3384 124.774 38.5004C124.915 38.318 124.995 38.0747 125.002 37.8112C125.055 35.9867 125.008 34.1487 124.875 32.3174C124.801 31.439 124.026 31.0809 123.651 31.7296C122.521 33.6757 121.278 35.4799 119.948 37.1489C119.968 35.8448 119.941 34.5338 119.854 33.2229C120.121 33.4594 120.509 33.4594 120.757 33.0878C121.96 31.2498 123.063 29.2699 124.032 27.1548C124.126 26.9521 124.153 26.6886 124.106 26.4318C123.765 24.6208 123.324 22.8166 122.789 21.0327C122.528 20.1745 121.686 19.9921 121.465 20.7151C120.783 22.891 119.968 24.9519 119.025 26.8845C118.764 25.5939 118.45 24.3032 118.082 23.0261C118.397 23.2018 118.771 23.1207 118.931 22.695C119.707 20.6137 120.335 18.4108 120.81 16.0998C120.857 15.8768 120.823 15.6133 120.716 15.3633C119.968 13.6334 119.125 11.9306 118.176 10.2683C117.721 9.46414 116.852 9.46414 116.806 10.2345C116.658 12.559 116.331 14.7889 115.856 16.9175C115.308 15.6876 114.7 14.4713 114.038 13.2753C114.385 13.3834 114.74 13.2212 114.793 12.7617C115.061 10.5183 115.154 8.17349 115.047 5.75436C115.041 5.51785 114.94 5.25432 114.773 5.03133C113.61 3.45011 112.34 1.92295 110.969 0.443096C110.301 -0.266424 109.438 -0.083976 109.599 0.706632C110.053 3.07846 110.301 5.39622 110.361 7.6329C109.906 7.03825 109.438 6.45037 108.957 5.86924L108.556 6.2071C109.031 6.78148 109.492 7.36261 109.94 7.95049C107.827 7.32206 105.701 6.84905 103.602 6.53821C102.907 6.43685 102.66 7.24097 103.181 7.80183C104.271 8.97761 105.274 10.1939 106.203 11.4508C106.33 11.6265 106.517 11.7549 106.711 11.8089C108.73 12.3428 110.742 13.0455 112.741 13.9105C113.149 14.0862 113.476 13.8834 113.57 13.5253C114.225 14.7078 114.827 15.9106 115.368 17.127C113.476 16.0931 111.558 15.2214 109.626 14.5051C108.984 14.2686 108.549 14.9781 108.91 15.6066C109.659 16.931 110.334 18.2825 110.929 19.661C111.016 19.8569 111.163 20.0191 111.337 20.1069C113.155 21.0327 114.94 22.1139 116.679 23.3572C117.026 23.614 117.394 23.4856 117.568 23.168C117.929 24.4316 118.243 25.702 118.497 26.9859C116.892 25.6007 115.221 24.3573 113.516 23.2761C112.948 22.918 112.36 23.4991 112.567 24.1749C112.995 25.5939 113.343 27.0265 113.617 28.4725C113.65 28.6752 113.757 28.8644 113.911 28.9861C115.475 30.2565 116.979 31.6823 118.403 33.25C118.691 33.5608 119.072 33.5202 119.312 33.25C119.399 34.5474 119.426 35.8448 119.406 37.1354C118.136 35.4461 116.779 33.8919 115.348 32.4864C114.874 32.0201 114.178 32.4593 114.232 33.1486C114.339 34.6082 114.372 36.0678 114.332 37.5206C114.325 37.7301 114.392 37.926 114.513 38.0814C115.769 39.6492 116.939 41.3588 118.002 43.1968C118.216 43.5684 118.604 43.6089 118.891 43.3995C118.697 44.6766 118.457 45.947 118.163 47.2039C117.273 45.2848 116.271 43.4738 115.174 41.798C114.807 41.2439 114.038 41.5142 113.944 42.1967C113.744 43.636 113.476 45.0618 113.129 46.4741C113.082 46.6768 113.102 46.8863 113.189 47.0619C114.085 48.8662 114.874 50.7852 115.522 52.8192C115.649 53.2314 116.017 53.353 116.344 53.2111C115.89 54.4207 115.382 55.61 114.827 56.7858C114.372 54.7045 113.777 52.7178 113.055 50.8325C112.808 50.2041 111.999 50.3055 111.765 50.9542C111.27 52.3259 110.702 53.6706 110.06 54.9815C109.973 55.164 109.947 55.3802 109.993 55.5694C110.481 57.5358 110.836 59.5968 111.023 61.7389C111.063 62.1713 111.391 62.3741 111.745 62.2997C111.03 63.3944 110.267 64.4621 109.459 65.5027C109.479 63.3539 109.338 61.2591 109.044 59.2522C108.937 58.5832 108.128 58.5089 107.754 59.0968C106.972 60.3334 106.109 61.5362 105.187 62.6984C105.053 62.8606 104.986 63.0701 104.986 63.266C105.02 65.3135 104.886 67.4286 104.572 69.5841C104.511 70.0234 104.786 70.2937 105.153 70.2937C104.197 71.2262 103.188 72.1249 102.132 72.9763C102.673 70.8545 103.027 68.753 103.208 66.7055C103.261 66.0298 102.479 65.773 101.971 66.2798C100.901 67.3339 99.7716 68.3408 98.5683 69.2936C98.3945 69.4287 98.2741 69.6179 98.2274 69.8139Z" f="#010202"></path>
</svg>